<svg width="1439" height="616" viewBox="0 0 1439 616" fill="none" xmlns="http://www.w3.org/2000/svg">
<path d="M112.176 436.92V566.873H103.913V444.432H9.26554V566.873H1.00269V436.92H112.176Z" fill="white"/>
<path d="M279.917 436.92V566.873H271.904V531.317C267.064 542.668 259.635 551.599 249.62 558.109C239.771 564.452 228.504 567.624 215.817 567.624C203.965 567.624 193.199 564.869 183.517 559.361C173.835 553.685 166.157 545.84 160.481 535.824C154.973 525.809 152.218 514.458 152.218 501.771C152.218 489.085 154.973 477.734 160.481 467.718C166.157 457.703 173.835 449.941 183.517 444.432C193.199 438.757 203.965 435.919 215.817 435.919C228.337 435.919 239.521 439.091 249.369 445.434C259.385 451.777 266.813 460.541 271.654 471.725V436.92H279.917ZM216.068 560.112C226.584 560.112 236.015 557.692 244.362 552.851C252.875 547.843 259.552 540.916 264.393 532.068C269.234 523.221 271.654 513.122 271.654 501.771C271.654 490.42 269.234 480.405 264.393 471.725C259.552 462.878 252.875 456.034 244.362 451.193C236.015 446.185 226.584 443.681 216.068 443.681C205.551 443.681 196.036 446.185 187.523 451.193C179.177 456.034 172.583 462.878 167.742 471.725C162.902 480.405 160.481 490.42 160.481 501.771C160.481 513.122 162.902 523.221 167.742 532.068C172.583 540.916 179.177 547.843 187.523 552.851C196.036 557.692 205.551 560.112 216.068 560.112Z" fill="white"/>
<path d="M391.303 435.919C403.489 435.919 414.422 438.757 424.104 444.432C433.953 450.108 441.548 457.953 446.889 467.969C452.398 477.984 455.152 489.335 455.152 502.022C455.152 514.541 452.398 525.809 446.889 535.824C441.548 545.84 434.036 553.685 424.354 559.361C414.839 564.869 403.989 567.624 391.804 567.624C379.117 567.624 367.933 564.619 358.251 558.61C348.737 552.433 341.559 543.753 336.718 532.569V615.448H328.205V502.022C328.205 489.335 330.876 477.984 336.217 467.969C341.726 457.953 349.237 450.108 358.752 444.432C368.267 438.757 379.117 435.919 391.303 435.919ZM391.303 560.112C401.986 560.112 411.501 557.692 419.847 552.851C428.361 547.843 434.954 540.916 439.628 532.068C444.469 523.221 446.889 513.206 446.889 502.022C446.889 490.838 444.469 480.822 439.628 471.975C434.954 463.128 428.361 456.2 419.847 451.193C411.501 446.185 401.986 443.681 391.303 443.681C380.62 443.681 371.105 446.185 362.759 451.193C354.579 456.034 348.152 462.878 343.479 471.725C338.805 480.405 336.468 490.42 336.468 501.771C336.468 513.122 338.805 523.221 343.479 532.068C348.152 540.916 354.579 547.843 362.759 552.851C371.105 557.692 380.62 560.112 391.303 560.112Z" fill="white"/>
<path d="M609.717 436.92V566.873H601.704V531.317C596.863 542.668 589.435 551.599 579.42 558.109C569.571 564.452 558.303 567.624 545.617 567.624C533.765 567.624 522.999 564.869 513.317 559.361C503.635 553.685 495.956 545.84 490.281 535.824C484.772 525.809 482.018 514.458 482.018 501.771C482.018 489.085 484.772 477.734 490.281 467.718C495.956 457.703 503.635 449.941 513.317 444.432C522.999 438.757 533.765 435.919 545.617 435.919C558.137 435.919 569.321 439.091 579.169 445.434C589.185 451.777 596.613 460.541 601.454 471.725V436.92H609.717ZM545.867 560.112C556.384 560.112 565.815 557.692 574.161 552.851C582.675 547.843 589.352 540.916 594.193 532.068C599.033 523.221 601.454 513.122 601.454 501.771C601.454 490.42 599.033 480.405 594.193 471.725C589.352 462.878 582.675 456.034 574.161 451.193C565.815 446.185 556.384 443.681 545.867 443.681C535.351 443.681 525.836 446.185 517.323 451.193C508.977 456.034 502.383 462.878 497.542 471.725C492.701 480.405 490.281 490.42 490.281 501.771C490.281 513.122 492.701 523.221 497.542 532.068C502.383 540.916 508.977 547.843 517.323 552.851C525.836 557.692 535.351 560.112 545.867 560.112Z" fill="white"/>
<path d="M802.98 436.92V566.873H795.218V451.193L735.625 549.345H731.619L672.527 451.944V566.873H664.515V436.92H672.277L733.873 539.33L795.468 436.92H802.98Z" fill="white"/>
<path d="M908.719 567.624C896.7 567.624 885.766 564.869 875.918 559.361C866.236 553.685 858.641 545.84 853.132 535.824C847.624 525.809 844.869 514.458 844.869 501.771C844.869 489.085 847.624 477.734 853.132 467.718C858.641 457.703 866.236 449.941 875.918 444.432C885.766 438.757 896.7 435.919 908.719 435.919C920.904 435.919 931.838 438.757 941.52 444.432C951.201 449.941 958.797 457.703 964.305 467.718C969.814 477.734 972.568 489.085 972.568 501.771C972.568 514.458 969.814 525.809 964.305 535.824C958.797 545.84 951.201 553.685 941.52 559.361C931.838 564.869 920.904 567.624 908.719 567.624ZM908.719 560.112C919.235 560.112 928.666 557.692 937.013 552.851C945.526 547.843 952.203 540.916 957.044 532.068C961.885 523.221 964.305 513.122 964.305 501.771C964.305 490.42 961.885 480.405 957.044 471.725C952.203 462.878 945.526 456.034 937.013 451.193C928.666 446.185 919.235 443.681 908.719 443.681C898.202 443.681 888.688 446.185 880.174 451.193C871.828 456.034 865.234 462.878 860.394 471.725C855.553 480.405 853.132 490.42 853.132 501.771C853.132 513.122 855.553 523.221 860.394 532.068C865.234 540.916 871.828 547.843 880.174 552.851C888.688 557.692 898.202 560.112 908.719 560.112Z" fill="white"/>
<path d="M1014.61 436.92H1022.87V497.765H1116.52V436.92H1124.78V566.873H1116.52V505.026H1022.87V566.873H1014.61V436.92Z" fill="white"/>
<path d="M1230.45 567.624C1218.43 567.624 1207.5 564.869 1197.65 559.361C1187.97 553.685 1180.37 545.84 1174.86 535.824C1169.35 525.809 1166.6 514.458 1166.6 501.771C1166.6 489.085 1169.35 477.734 1174.86 467.718C1180.37 457.703 1187.97 449.941 1197.65 444.432C1207.5 438.757 1218.43 435.919 1230.45 435.919C1242.64 435.919 1253.57 438.757 1263.25 444.432C1272.93 449.941 1280.53 457.703 1286.04 467.718C1291.54 477.734 1294.3 489.085 1294.3 501.771C1294.3 514.458 1291.54 525.809 1286.04 535.824C1280.53 545.84 1272.93 553.685 1263.25 559.361C1253.57 564.869 1242.64 567.624 1230.45 567.624ZM1230.45 560.112C1240.97 560.112 1250.4 557.692 1258.74 552.851C1267.26 547.843 1273.93 540.916 1278.77 532.068C1283.62 523.221 1286.04 513.122 1286.04 501.771C1286.04 490.42 1283.62 480.405 1278.77 471.725C1273.93 462.878 1267.26 456.034 1258.74 451.193C1250.4 446.185 1240.97 443.681 1230.45 443.681C1219.93 443.681 1210.42 446.185 1201.91 451.193C1193.56 456.034 1186.97 462.878 1182.12 471.725C1177.28 480.405 1174.86 490.42 1174.86 501.771C1174.86 513.122 1177.28 523.221 1182.12 532.068C1186.97 540.916 1193.56 547.843 1201.91 552.851C1210.42 557.692 1219.93 560.112 1230.45 560.112Z" fill="white"/>
<path d="M1409.2 500.019C1429.07 503.19 1439 513.957 1439 532.319C1439 543.67 1434.91 552.266 1426.73 558.109C1418.72 563.951 1406.53 566.873 1390.17 566.873H1336.34V436.92H1388.92C1403.11 436.92 1414.21 439.758 1422.22 445.434C1430.24 451.109 1434.24 459.289 1434.24 469.972C1434.24 477.817 1431.99 484.328 1427.48 489.502C1423.14 494.51 1417.05 498.015 1409.2 500.019ZM1344.6 497.515H1388.92C1400.77 497.515 1409.87 495.261 1416.21 490.754C1422.72 486.247 1425.98 479.57 1425.98 470.723C1425.98 461.876 1422.72 455.199 1416.21 450.692C1409.87 446.185 1400.77 443.931 1388.92 443.931H1344.6V497.515ZM1390.42 559.862C1403.78 559.862 1413.79 557.608 1420.47 553.101C1427.32 548.594 1430.74 541.583 1430.74 532.068C1430.74 522.554 1427.65 515.543 1421.47 511.036C1415.46 506.529 1405.95 504.275 1392.93 504.275H1344.6V559.862H1390.42Z" fill="white"/>
<path fill-rule="evenodd" clip-rule="evenodd" d="M33.9888 356.221L33.9812 356.227C33.8471 356.338 33.7111 356.451 33.5758 356.564C26.5112 362.432 17.6637 369.781 0.99585 369.781V354.844C12.2599 354.844 17.5723 350.435 24.281 344.866L24.442 344.733C24.5961 344.605 24.7533 344.474 24.9108 344.344C27.9175 341.845 31.5513 338.826 36.0838 336.529C41.0522 334.01 46.8632 332.447 54.2641 332.447C61.6112 332.447 67.4263 334.014 72.41 336.553C77.1498 338.967 80.9053 342.165 84.0326 344.827L84.138 344.917L84.1478 344.925C90.7217 350.482 96.17 354.985 107.532 354.985C118.724 354.985 124.053 350.624 130.673 345.128L130.942 344.904L131.032 344.827C134.16 342.164 137.915 338.967 142.655 336.553C147.639 334.014 153.454 332.447 160.801 332.447C168.148 332.447 173.963 334.014 178.947 336.553C183.686 338.967 187.442 342.164 190.569 344.827L190.675 344.917L190.686 344.927C197.259 350.483 202.708 354.985 214.069 354.985C225.26 354.985 230.589 350.624 237.209 345.128L237.478 344.904L237.569 344.827C240.696 342.164 244.452 338.967 249.191 336.553C254.175 334.014 259.99 332.447 267.337 332.447C274.684 332.447 280.499 334.014 285.483 336.553C290.223 338.967 293.979 342.165 297.106 344.827L297.211 344.917L297.222 344.926C303.795 350.483 309.244 354.985 320.606 354.985C331.891 354.985 337.211 350.549 343.759 345.014L343.853 344.934L343.873 344.917L343.979 344.827C347.106 342.165 350.862 338.967 355.602 336.553C360.585 334.014 366.4 332.447 373.747 332.447C381.094 332.447 386.91 334.014 391.893 336.553C396.633 338.967 400.389 342.165 403.516 344.827L403.621 344.917L403.632 344.926C410.205 350.482 415.654 354.985 427.016 354.985C438.301 354.985 443.621 350.55 450.168 345.014L450.264 344.934L450.283 344.917L450.389 344.827C453.516 342.164 457.272 338.967 462.012 336.553C466.995 334.014 472.81 332.447 480.157 332.447C487.505 332.447 493.32 334.014 498.303 336.553C503.043 338.967 506.799 342.164 509.926 344.827L510.031 344.917L510.039 344.924C516.614 350.481 522.062 354.985 533.426 354.985C544.617 354.985 549.946 350.624 556.566 345.128L556.8 344.934L556.872 344.874L556.926 344.827C560.053 342.164 563.809 338.967 568.548 336.553C573.532 334.014 579.347 332.447 586.694 332.447C594.041 332.447 599.856 334.014 604.84 336.553C609.58 338.967 613.335 342.165 616.462 344.827L616.568 344.917L616.58 344.927C623.153 350.483 628.601 354.985 639.962 354.985C651.153 354.985 656.482 350.624 663.103 345.127L663.337 344.934L663.409 344.873L663.462 344.827C666.589 342.164 670.345 338.967 675.085 336.553C680.068 334.014 685.883 332.447 693.231 332.447C700.578 332.447 706.393 334.014 711.376 336.553C716.116 338.967 719.872 342.164 722.999 344.827L723.104 344.917C723.109 344.921 723.114 344.925 723.119 344.93C729.691 350.484 735.139 354.985 746.499 354.985C757.69 354.985 763.019 350.624 769.639 345.128L769.873 344.934L769.944 344.874L769.999 344.827C773.126 342.164 776.882 338.967 781.621 336.553C786.605 334.014 792.42 332.447 799.767 332.447C807.114 332.447 812.929 334.014 817.913 336.553C822.653 338.967 826.408 342.164 829.536 344.827L829.641 344.917L829.653 344.927C836.226 350.483 841.674 354.985 853.035 354.985C864.227 354.985 869.556 350.624 876.176 345.128L876.41 344.934L876.48 344.875L876.535 344.827C879.663 342.164 883.418 338.967 888.158 336.553C893.141 334.014 898.957 332.447 906.304 332.447C913.651 332.447 919.466 334.014 924.45 336.553C929.189 338.967 932.945 342.164 936.072 344.827L936.177 344.917L936.185 344.923C942.76 350.481 948.208 354.985 959.572 354.985C970.763 354.985 976.092 350.624 982.713 345.128L982.946 344.934L983.017 344.875L983.072 344.827C986.199 342.165 989.955 338.967 994.695 336.553C999.678 334.014 1005.49 332.447 1012.84 332.447C1020.19 332.447 1026 334.014 1030.99 336.553C1035.73 338.967 1039.48 342.165 1042.61 344.828L1042.71 344.917L1042.72 344.922C1049.3 350.48 1054.74 354.985 1066.11 354.985C1077.3 354.985 1082.63 350.624 1089.25 345.128L1089.48 344.934L1089.55 344.875L1089.61 344.827C1092.74 342.164 1096.49 338.967 1101.23 336.553C1106.21 334.014 1112.03 332.447 1119.38 332.447C1126.72 332.447 1132.54 334.014 1137.52 336.553C1142.26 338.967 1146.02 342.164 1149.15 344.827L1149.25 344.917L1149.26 344.923C1155.83 350.481 1161.28 354.985 1172.65 354.985C1183.84 354.985 1189.17 350.624 1195.79 345.127L1196.09 344.875L1196.09 344.873L1196.41 344.613L1196.62 344.432C1199.66 341.908 1203.34 338.858 1207.97 336.55C1212.89 334.099 1218.64 332.587 1225.91 332.587C1233.26 332.587 1239.08 334.155 1244.06 336.693C1248.8 339.108 1252.55 342.305 1255.68 344.968L1255.79 345.058L1255.8 345.067C1262.37 350.623 1267.82 355.126 1279.18 355.126C1290.37 355.126 1295.7 350.765 1302.32 345.268L1302.56 345.075L1302.63 345.015L1302.68 344.968C1305.81 342.305 1309.56 339.107 1314.3 336.693C1319.29 334.155 1325.1 332.587 1332.45 332.587C1339.8 332.587 1345.61 334.155 1350.6 336.693C1355.34 339.107 1359.09 342.305 1362.22 344.968L1362.32 345.058C1362.33 345.062 1362.33 345.067 1362.34 345.072C1368.91 350.626 1374.36 355.126 1385.72 355.126C1396.91 355.126 1402.24 350.765 1408.86 345.268L1409.09 345.075L1409.16 345.015L1409.22 344.968C1412.34 342.305 1416.1 339.107 1420.84 336.693C1425.82 334.155 1431.64 332.587 1438.99 332.587V347.524C1433.93 347.524 1430.45 348.562 1427.62 350.003C1424.61 351.536 1422.08 353.638 1418.77 356.448L1418.74 356.478L1418.4 356.76L1418.3 356.841C1411.21 362.727 1402.38 370.062 1385.72 370.062C1368.77 370.062 1359.79 362.476 1352.71 356.489L1352.66 356.448C1349.36 353.638 1346.83 351.536 1343.82 350.003C1340.99 348.562 1337.5 347.524 1332.45 347.524C1327.4 347.524 1323.91 348.562 1321.08 350.003C1318.07 351.536 1315.54 353.638 1312.24 356.448L1312.2 356.478L1311.77 356.841C1304.68 362.727 1295.84 370.062 1279.18 370.062C1262.23 370.062 1253.26 362.476 1246.17 356.489L1246.14 356.465L1246.12 356.448C1242.82 353.638 1240.29 351.536 1237.28 350.003C1234.45 348.562 1230.97 347.524 1225.91 347.524C1220.87 347.524 1217.41 348.535 1214.63 349.92C1211.67 351.395 1209.2 353.406 1205.94 356.107L1205.63 356.366L1205.63 356.368L1205.33 356.619L1205.23 356.699C1198.14 362.585 1189.31 369.921 1172.65 369.921C1155.69 369.921 1146.72 362.335 1139.64 356.349L1139.59 356.307C1136.29 353.497 1133.75 351.396 1130.74 349.863C1127.91 348.422 1124.43 347.383 1119.38 347.383C1114.32 347.383 1110.84 348.422 1108.01 349.863C1105 351.396 1102.47 353.497 1099.17 356.307L1099.13 356.337L1098.79 356.619L1098.69 356.7C1091.6 362.586 1082.77 369.922 1066.11 369.922C1049.16 369.922 1040.18 362.336 1033.1 356.349L1033.05 356.307C1029.75 353.497 1027.22 351.396 1024.21 349.863C1021.38 348.422 1017.89 347.383 1012.84 347.383C1007.79 347.383 1004.3 348.422 1001.47 349.863C998.464 351.396 995.93 353.497 992.629 356.307L992.594 356.337L992.254 356.619L992.157 356.7C985.068 362.586 976.234 369.922 959.572 369.922C942.621 369.922 933.646 362.336 926.564 356.349L926.515 356.307C923.214 353.497 920.68 351.396 917.67 349.863C914.841 348.422 911.356 347.383 906.304 347.383C901.251 347.383 897.766 348.422 894.937 349.863C891.927 351.396 889.393 353.497 886.092 356.307L886.058 356.337L885.718 356.619L885.62 356.7C878.532 362.586 869.697 369.922 853.035 369.922C836.084 369.922 827.11 362.335 820.027 356.349L819.998 356.324L819.978 356.307C816.678 353.497 814.144 351.396 811.134 349.863C808.305 348.422 804.82 347.383 799.767 347.383C794.715 347.383 791.23 348.422 788.4 349.863C785.391 351.396 782.857 353.497 779.556 356.307L779.521 356.337L779.181 356.62L779.084 356.7C771.995 362.586 763.161 369.922 746.499 369.922C729.548 369.922 720.573 362.336 713.491 356.349L713.442 356.307C710.141 353.497 707.607 351.396 704.597 349.863C701.768 348.422 698.283 347.383 693.231 347.383C688.178 347.383 684.693 348.422 681.864 349.863C678.854 351.396 676.32 353.497 673.019 356.307L672.984 356.338L672.644 356.619L672.547 356.7C665.459 362.586 656.624 369.922 639.962 369.922C623.011 369.922 614.036 362.336 606.954 356.349L606.925 356.324L606.905 356.307C603.604 353.497 601.07 351.396 598.061 349.863C595.231 348.422 591.747 347.383 586.694 347.383C581.641 347.383 578.157 348.422 575.327 349.863C572.318 351.396 569.784 353.497 566.483 356.307L566.447 356.338L566.108 356.619L566.011 356.7C558.922 362.586 550.088 369.922 533.426 369.922C516.475 369.922 507.5 362.335 500.417 356.349L500.389 356.324L500.369 356.307C497.068 353.497 494.534 351.396 491.524 349.863C488.695 348.422 485.21 347.383 480.157 347.383C475.105 347.383 471.62 348.422 468.791 349.863C465.781 351.396 463.247 353.497 459.946 356.307L459.927 356.324L459.812 356.421L459.721 356.498C452.689 362.442 443.842 369.922 427.016 369.922C410.065 369.922 401.09 362.335 394.008 356.349L393.979 356.324L393.959 356.307C390.658 353.497 388.124 351.396 385.114 349.863C382.285 348.422 378.8 347.383 373.747 347.383C368.695 347.383 365.21 348.422 362.381 349.863C359.371 351.396 356.837 353.497 353.536 356.307L353.516 356.324L353.402 356.421L353.311 356.497C346.279 362.442 337.432 369.922 320.606 369.922C303.654 369.922 294.68 362.335 287.597 356.349L287.569 356.324L287.549 356.307C284.248 353.497 281.714 351.396 278.704 349.863C275.875 348.422 272.39 347.383 267.337 347.383C262.285 347.383 258.8 348.422 255.971 349.863C252.961 351.396 250.427 353.497 247.126 356.307L247.091 356.337L246.751 356.619L246.654 356.7C239.565 362.586 230.731 369.922 214.069 369.922C197.118 369.922 188.143 362.335 181.061 356.349L181.032 356.324L181.012 356.307C177.711 353.497 175.177 351.396 172.167 349.863C169.338 348.422 165.853 347.383 160.801 347.383C155.748 347.383 152.263 348.422 149.434 349.863C146.424 351.396 143.89 353.497 140.59 356.307L140.554 356.337L140.214 356.62L140.117 356.7C133.029 362.586 124.194 369.922 107.532 369.922C90.5813 369.922 81.6066 362.335 74.5243 356.349L74.4753 356.307C71.1746 353.497 68.6407 351.396 65.6309 349.863C62.8015 348.422 59.3168 347.383 54.2641 347.383C49.1388 347.383 45.65 348.426 42.8369 349.852C39.828 351.377 37.3413 353.44 33.9888 356.221Z" fill="#EE0F50"/>
<path d="M189.671 30.6653H31.5157L31.9397 300.335H0.987061V3.5287H189.671V30.6653Z" fill="white"/>
<path d="M354.723 1.40865C392.319 1.40865 421.858 11.3022 443.341 31.0893C464.824 50.8764 475.566 78.1543 475.566 112.923C475.566 146.561 465.531 173.132 445.461 192.637C425.391 211.859 397.831 221.469 362.779 221.469C345.536 221.469 329.141 219.067 313.594 214.261C298.047 209.173 282.5 201.541 266.953 191.365V300.335H236.001V117.587C236.001 80.8397 246.318 52.2897 266.953 31.9373C287.871 11.5849 317.128 1.40865 354.723 1.40865ZM358.115 195.605C384.969 195.605 406.028 188.397 421.293 173.98C436.557 159.281 444.189 139.07 444.189 113.347C444.189 87.3412 436.274 66.8474 420.445 51.8657C404.615 36.8841 382.991 29.3932 355.571 29.3932C327.587 29.3932 305.821 37.1667 290.274 52.7138C274.727 67.9781 266.953 89.6026 266.953 117.587V161.26C279.391 172.567 293.242 181.189 308.506 187.125C324.053 192.778 340.59 195.605 358.115 195.605Z" fill="white"/>
<path d="M601.964 30.6653V273.198H662.173V300.335H510.802V273.198H571.011V30.6653H510.802V3.5287H662.173V30.6653H601.964Z" fill="white"/>
<path d="M1094.79 3.5287V300.335H730.995V3.5287H761.948V273.198H897.63V3.5287H928.583V273.198H1063.84V3.5287H1094.79Z" fill="white"/>
<path d="M1314.33 0.98465C1352.77 0.98465 1383.01 12.2916 1405.06 34.9054C1427.39 57.2365 1438.56 89.6025 1438.56 132.003V300.335H1407.61V212.989H1221.04V300.335H1190.51V132.003C1190.51 89.6025 1201.54 57.2365 1223.59 34.9054C1245.92 12.2916 1276.16 0.98465 1314.33 0.98465ZM1407.61 185.853V129.035C1407.61 95.9627 1399.41 71.0875 1383.01 54.4098C1366.62 37.4494 1343.72 28.9692 1314.33 28.9692C1284.93 28.9692 1262.03 37.4494 1245.64 54.4098C1229.24 71.0875 1221.04 95.9627 1221.04 129.035V185.853H1407.61Z" fill="white"/>
</svg>
